<svg xmlns="http://www.w3.org/2000/svg" width="1200" height="4268" viewBox="0 0 1200 4268">
<defs>
<style>@import url('https://fonts.googleapis.com/css2?family=Inter:wght@400;500;600;700&amp;display=swap');text{font-family:'Inter',sans-serif;}</style>
<filter id="sh" x="-5%" y="-5%" width="110%" height="120%"><feDropShadow dx="0" dy="1" stdDeviation="1" flood-opacity="0.05"/></filter>
</defs>
<rect width="1200" height="4268" fill="#f0f4f7"/>
<rect width="1200" height="70" fill="#ffffff" stroke="#e2e8f0"/>
<text x="40" y="32" font-size="28" font-weight="700" fill="#1a2b3c">B2S Design System</text>
<text x="40" y="54" font-size="13" fill="#5c6b7a">Bee2Solutions © 2025 · v1.2 · Lucide Icons v0.563</text>
<text x="40" y="114" font-size="22" font-weight="700" fill="#1a2b3c"><tspan fill="#0096c7">1. </tspan>Paleta de Cores</text>
<text x="40" y="146" font-size="10" font-weight="600" fill="#9aa5b1" letter-spacing="0.5">B2S BRAND OVERRIDES</text>
<g transform="translate(40,158)"><rect width="120" height="64" rx="10" fill="#f93f26"/><text x="60" y="36" font-size="13" font-weight="700" fill="white" text-anchor="middle">Warm Red</text><text x="60" y="52" font-size="10" fill="rgba(255,255,255,.7)" text-anchor="middle">#f93f26</text></g>
<g transform="translate(180,158)"><rect width="120" height="64" rx="10" fill="#5a6268"/><text x="60" y="36" font-size="13" font-weight="700" fill="white" text-anchor="middle">Petro Gray</text><text x="60" y="52" font-size="10" fill="rgba(255,255,255,.7)" text-anchor="middle">#5a6268</text></g>
<g transform="translate(320,158)"><rect width="100" height="64" rx="10" fill="#ff5c45"/><text x="50" y="80" font-size="11" font-weight="600" fill="#1a2b3c" text-anchor="middle">B2S Red 400</text><text x="50" y="94" font-size="10" fill="#9aa5b1" text-anchor="middle">#ff5c45</text></g>
<g transform="translate(460,158)"><rect width="100" height="64" rx="10" fill="#ffe5e2" stroke="#e2e8f0"/><text x="50" y="80" font-size="11" font-weight="600" fill="#1a2b3c" text-anchor="middle">B2S Red 100</text><text x="50" y="94" font-size="10" fill="#9aa5b1" text-anchor="middle">#ffe5e2</text></g>
<g transform="translate(600,158)"><rect width="100" height="64" rx="10" fill="#fff5f4" stroke="#e2e8f0"/><text x="50" y="80" font-size="11" font-weight="600" fill="#1a2b3c" text-anchor="middle">B2S Red 50</text><text x="50" y="94" font-size="10" fill="#9aa5b1" text-anchor="middle">#fff5f4</text></g>
<text x="40" y="264" font-size="10" font-weight="600" fill="#9aa5b1" letter-spacing="0.5">BLUE</text>
<g transform="translate(40,276)"><rect width="120" height="60" rx="8" fill="#023e8a"/><text x="60" y="78" font-size="12" font-weight="600" fill="#1a2b3c" text-anchor="middle">Blue 700</text><text x="60" y="92" font-size="10" fill="#9aa5b1" text-anchor="middle">#023e8a</text></g>
<g transform="translate(170,276)"><rect width="120" height="60" rx="8" fill="#0077b6"/><text x="60" y="78" font-size="12" font-weight="600" fill="#1a2b3c" text-anchor="middle">Blue 600</text><text x="60" y="92" font-size="10" fill="#9aa5b1" text-anchor="middle">#0077b6</text></g>
<g transform="translate(300,276)"><rect width="120" height="60" rx="8" fill="#0096c7"/><text x="60" y="78" font-size="12" font-weight="600" fill="#1a2b3c" text-anchor="middle">Blue 500</text><text x="60" y="92" font-size="10" fill="#9aa5b1" text-anchor="middle">#0096c7</text></g>
<g transform="translate(430,276)"><rect width="120" height="60" rx="8" fill="#00b4d8"/><text x="60" y="78" font-size="12" font-weight="600" fill="#1a2b3c" text-anchor="middle">Blue 400</text><text x="60" y="92" font-size="10" fill="#9aa5b1" text-anchor="middle">#00b4d8</text></g>
<g transform="translate(560,276)"><rect width="120" height="60" rx="8" fill="#48cae4"/><text x="60" y="78" font-size="12" font-weight="600" fill="#1a2b3c" text-anchor="middle">Blue 300</text><text x="60" y="92" font-size="10" fill="#9aa5b1" text-anchor="middle">#48cae4</text></g>
<g transform="translate(690,276)"><rect width="120" height="60" rx="8" fill="#90e0ef"/><text x="60" y="78" font-size="12" font-weight="600" fill="#1a2b3c" text-anchor="middle">Blue 200</text><text x="60" y="92" font-size="10" fill="#9aa5b1" text-anchor="middle">#90e0ef</text></g>
<g transform="translate(820,276)"><rect width="120" height="60" rx="8" fill="#caf0f8" stroke="#e2e8f0"/><text x="60" y="78" font-size="12" font-weight="600" fill="#1a2b3c" text-anchor="middle">Blue 100</text><text x="60" y="92" font-size="10" fill="#9aa5b1" text-anchor="middle">#caf0f8</text></g>
<g transform="translate(950,276)"><rect width="120" height="60" rx="8" fill="#e8f7fa" stroke="#e2e8f0"/><text x="60" y="78" font-size="12" font-weight="600" fill="#1a2b3c" text-anchor="middle">Blue 50</text><text x="60" y="92" font-size="10" fill="#9aa5b1" text-anchor="middle">#e8f7fa</text></g>
<text x="40" y="380" font-size="10" font-weight="600" fill="#9aa5b1" letter-spacing="0.5">GREEN · RED · AMBER</text>
<g transform="translate(40,392)"><rect width="110" height="60" rx="8" fill="#10b981"/><text x="55" y="78" font-size="11" font-weight="600" fill="#1a2b3c" text-anchor="middle">Green 500</text><text x="55" y="92" font-size="10" fill="#9aa5b1" text-anchor="middle">#10b981</text></g>
<g transform="translate(160,392)"><rect width="110" height="60" rx="8" fill="#34d399"/><text x="55" y="78" font-size="11" font-weight="600" fill="#1a2b3c" text-anchor="middle">Green 400</text><text x="55" y="92" font-size="10" fill="#9aa5b1" text-anchor="middle">#34d399</text></g>
<g transform="translate(280,392)"><rect width="110" height="60" rx="8" fill="#d1fae5" stroke="#e2e8f0"/><text x="55" y="78" font-size="11" font-weight="600" fill="#1a2b3c" text-anchor="middle">Green 100</text><text x="55" y="92" font-size="10" fill="#9aa5b1" text-anchor="middle">#d1fae5</text></g>
<g transform="translate(400,392)"><rect width="110" height="60" rx="8" fill="#ef4444"/><text x="55" y="78" font-size="11" font-weight="600" fill="#1a2b3c" text-anchor="middle">Red 500</text><text x="55" y="92" font-size="10" fill="#9aa5b1" text-anchor="middle">#ef4444</text></g>
<g transform="translate(520,392)"><rect width="110" height="60" rx="8" fill="#f87171"/><text x="55" y="78" font-size="11" font-weight="600" fill="#1a2b3c" text-anchor="middle">Red 400</text><text x="55" y="92" font-size="10" fill="#9aa5b1" text-anchor="middle">#f87171</text></g>
<g transform="translate(640,392)"><rect width="110" height="60" rx="8" fill="#fee2e2" stroke="#e2e8f0"/><text x="55" y="78" font-size="11" font-weight="600" fill="#1a2b3c" text-anchor="middle">Red 100</text><text x="55" y="92" font-size="10" fill="#9aa5b1" text-anchor="middle">#fee2e2</text></g>
<g transform="translate(760,392)"><rect width="110" height="60" rx="8" fill="#f59e0b"/><text x="55" y="78" font-size="11" font-weight="600" fill="#1a2b3c" text-anchor="middle">Amber 500</text><text x="55" y="92" font-size="10" fill="#9aa5b1" text-anchor="middle">#f59e0b</text></g>
<g transform="translate(880,392)"><rect width="110" height="60" rx="8" fill="#fbbf24"/><text x="55" y="78" font-size="11" font-weight="600" fill="#1a2b3c" text-anchor="middle">Amber 400</text><text x="55" y="92" font-size="10" fill="#9aa5b1" text-anchor="middle">#fbbf24</text></g>
<g transform="translate(1000,392)"><rect width="110" height="60" rx="8" fill="#fef3c7" stroke="#e2e8f0"/><text x="55" y="78" font-size="11" font-weight="600" fill="#1a2b3c" text-anchor="middle">Amber 100</text><text x="55" y="92" font-size="10" fill="#9aa5b1" text-anchor="middle">#fef3c7</text></g>
<text x="40" y="496" font-size="10" font-weight="600" fill="#9aa5b1" letter-spacing="0.5">NEUTRALS · BACKGROUNDS · TEXT</text>
<g transform="translate(40,508)"><rect width="140" height="60" rx="8" fill="#1a2b3c"/><text x="70" y="78" font-size="11" font-weight="600" fill="#1a2b3c" text-anchor="middle">text-primary</text><text x="70" y="92" font-size="10" fill="#9aa5b1" text-anchor="middle">#1a2b3c</text></g>
<g transform="translate(190,508)"><rect width="140" height="60" rx="8" fill="#5c6b7a"/><text x="70" y="78" font-size="11" font-weight="600" fill="#1a2b3c" text-anchor="middle">text-secondary</text><text x="70" y="92" font-size="10" fill="#9aa5b1" text-anchor="middle">#5c6b7a</text></g>
<g transform="translate(340,508)"><rect width="140" height="60" rx="8" fill="#9aa5b1"/><text x="70" y="78" font-size="11" font-weight="600" fill="#1a2b3c" text-anchor="middle">text-muted</text><text x="70" y="92" font-size="10" fill="#9aa5b1" text-anchor="middle">#9aa5b1</text></g>
<g transform="translate(490,508)"><rect width="140" height="60" rx="8" fill="#ffffff" stroke="#e2e8f0"/><text x="70" y="78" font-size="11" font-weight="600" fill="#1a2b3c" text-anchor="middle">bg-card</text><text x="70" y="92" font-size="10" fill="#9aa5b1" text-anchor="middle">#ffffff</text></g>
<g transform="translate(640,508)"><rect width="140" height="60" rx="8" fill="#f7f9fb" stroke="#e2e8f0"/><text x="70" y="78" font-size="11" font-weight="600" fill="#1a2b3c" text-anchor="middle">bg-secondary</text><text x="70" y="92" font-size="10" fill="#9aa5b1" text-anchor="middle">#f7f9fb</text></g>
<g transform="translate(790,508)"><rect width="140" height="60" rx="8" fill="#f0f4f7" stroke="#e2e8f0"/><text x="70" y="78" font-size="11" font-weight="600" fill="#1a2b3c" text-anchor="middle">bg-hover</text><text x="70" y="92" font-size="10" fill="#9aa5b1" text-anchor="middle">#f0f4f7</text></g>
<g transform="translate(940,508)"><rect width="140" height="60" rx="8" fill="#e2e8f0" stroke="#cbd5e0"/><text x="70" y="78" font-size="11" font-weight="600" fill="#1a2b3c" text-anchor="middle">border</text><text x="70" y="92" font-size="10" fill="#9aa5b1" text-anchor="middle">#e2e8f0</text></g>
<text x="40" y="612" font-size="10" font-weight="600" fill="#9aa5b1" letter-spacing="0.5">DARK THEME</text>
<rect x="40" y="624" width="1120" height="70" rx="10" fill="#1a2028"/>
<g transform="translate(52,634)"><rect width="140" height="50" rx="8" fill="#1a2028" stroke="#2d3748"/><text x="70" y="22" font-size="12" font-weight="600" fill="#e8edf2" text-anchor="middle">bg-card</text><text x="70" y="38" font-size="10" fill="#5c6b7a" text-anchor="middle">#1a2028</text></g>
<g transform="translate(212,634)"><rect width="140" height="50" rx="8" fill="#242d38" stroke="#2d3748"/><text x="70" y="22" font-size="12" font-weight="600" fill="#e8edf2" text-anchor="middle">bg-secondary</text><text x="70" y="38" font-size="10" fill="#5c6b7a" text-anchor="middle">#242d38</text></g>
<g transform="translate(372,634)"><rect width="140" height="50" rx="8" fill="#2d3748" stroke="#4a5568"/><text x="70" y="22" font-size="12" font-weight="600" fill="#e8edf2" text-anchor="middle">bg-hover</text><text x="70" y="38" font-size="10" fill="#5c6b7a" text-anchor="middle">#2d3748</text></g>
<line x1="40" y1="720" x2="1160" y2="720" stroke="#e2e8f0"/>
<text x="40" y="760" font-size="22" font-weight="700" fill="#1a2b3c"><tspan fill="#0096c7">2. </tspan>Tipografia</text>
<text x="40" y="780" font-size="12" fill="#5c6b7a">Inter · Font weights: 400, 500, 600, 700</text>
<text x="40" y="796" font-size="28" font-weight="700" fill="#1a2b3c">Dashboard</text>
<text x="40" y="812" font-size="10" fill="#9aa5b1">H1 — 32px / Bold</text>
<text x="40" y="840" font-size="22" font-weight="700" fill="#1a2b3c">Zonas de Rega</text>
<text x="40" y="856" font-size="10" fill="#9aa5b1">H2 — 24px / Bold</text>
<text x="40" y="884" font-size="18" font-weight="600" fill="#1a2b3c">Section Title</text>
<text x="40" y="900" font-size="10" fill="#9aa5b1">H3 — 18px / SemiBold</text>
<text x="40" y="928" font-size="14" font-weight="400" fill="#1a2b3c">Texto de corpo standard usado em todo o sistema.</text>
<text x="40" y="944" font-size="10" fill="#9aa5b1">Body — 14px / Regular</text>
<text x="40" y="972" font-size="12" font-weight="500" fill="#5c6b7a">Detalhes e metadados auxiliares</text>
<text x="40" y="988" font-size="10" fill="#9aa5b1">Small — 12px / Medium</text>
<text x="40" y="1016" font-size="11" font-weight="600" fill="#9aa5b1" letter-spacing="0.5">NAV SECTION · STATUS</text>
<text x="40" y="1032" font-size="10" fill="#9aa5b1">Overline — 11px / SemiBold / Uppercase / 0.5px spacing</text>
<text x="40" y="1060" font-size="28" font-weight="700" fill="#1a2b3c">2.340 <tspan font-size="14" font-weight="400" fill="#9aa5b1">litros</tspan></text>
<text x="40" y="1078" font-size="10" fill="#9aa5b1">KPI — 32px / Bold + unit suffix</text>
<line x1="40" y1="1100" x2="1160" y2="1100" stroke="#e2e8f0"/>
<text x="40" y="1140" font-size="22" font-weight="700" fill="#1a2b3c"><tspan fill="#0096c7">3. </tspan>Espaçamento &amp; Radius</text>
<text x="40" y="1160" font-size="12" fill="#5c6b7a">Base 4px · Border-radius scale</text>
<g transform="translate(40,1176)"><rect width="4" height="36" rx="2" fill="#0096c7"/><text x="10" y="20" font-size="11" font-weight="600" fill="#1a2b3c">4px</text><text x="10" y="34" font-size="9" fill="#9aa5b1">sp-1</text></g>
<g transform="translate(100,1176)"><rect width="8" height="36" rx="2" fill="#0096c7"/><text x="14" y="20" font-size="11" font-weight="600" fill="#1a2b3c">8px</text><text x="14" y="34" font-size="9" fill="#9aa5b1">sp-2</text></g>
<g transform="translate(164,1176)"><rect width="12" height="36" rx="2" fill="#0096c7"/><text x="18" y="20" font-size="11" font-weight="600" fill="#1a2b3c">12px</text><text x="18" y="34" font-size="9" fill="#9aa5b1">sp-3</text></g>
<g transform="translate(232,1176)"><rect width="16" height="36" rx="2" fill="#0096c7"/><text x="22" y="20" font-size="11" font-weight="600" fill="#1a2b3c">16px</text><text x="22" y="34" font-size="9" fill="#9aa5b1">sp-4</text></g>
<g transform="translate(304,1176)"><rect width="20" height="36" rx="2" fill="#0096c7"/><text x="26" y="20" font-size="11" font-weight="600" fill="#1a2b3c">20px</text><text x="26" y="34" font-size="9" fill="#9aa5b1">sp-5</text></g>
<g transform="translate(380,1176)"><rect width="24" height="36" rx="2" fill="#0096c7"/><text x="30" y="20" font-size="11" font-weight="600" fill="#1a2b3c">24px</text><text x="30" y="34" font-size="9" fill="#9aa5b1">sp-6</text></g>
<g transform="translate(460,1176)"><rect width="32" height="36" rx="2" fill="#0096c7"/><text x="38" y="20" font-size="11" font-weight="600" fill="#1a2b3c">32px</text><text x="38" y="34" font-size="9" fill="#9aa5b1">sp-8</text></g>
<g transform="translate(548,1176)"><rect width="40" height="36" rx="2" fill="#0096c7"/><text x="46" y="20" font-size="11" font-weight="600" fill="#1a2b3c">40px</text><text x="46" y="34" font-size="9" fill="#9aa5b1">sp-10</text></g>
<g transform="translate(644,1176)"><rect width="48" height="36" rx="2" fill="#0096c7"/><text x="54" y="20" font-size="11" font-weight="600" fill="#1a2b3c">48px</text><text x="54" y="34" font-size="9" fill="#9aa5b1">sp-12</text></g>
<g transform="translate(748,1176)"><rect width="64" height="36" rx="2" fill="#0096c7"/><text x="70" y="20" font-size="11" font-weight="600" fill="#1a2b3c">64px</text><text x="70" y="34" font-size="9" fill="#9aa5b1">sp-16</text></g>
<text x="40" y="1232" font-size="10" font-weight="600" fill="#9aa5b1" letter-spacing="0.5">BORDER RADIUS</text>
<g transform="translate(40,1246)"><rect width="100" height="56" rx="6" fill="#ffffff" stroke="#0096c7" stroke-width="2"/><text x="50" y="72" font-size="11" font-weight="600" fill="#1a2b3c" text-anchor="middle">6px</text><text x="50" y="86" font-size="10" fill="#9aa5b1" text-anchor="middle">radius-sm</text></g>
<g transform="translate(170,1246)"><rect width="100" height="56" rx="10" fill="#ffffff" stroke="#0096c7" stroke-width="2"/><text x="50" y="72" font-size="11" font-weight="600" fill="#1a2b3c" text-anchor="middle">10px</text><text x="50" y="86" font-size="10" fill="#9aa5b1" text-anchor="middle">radius-md</text></g>
<g transform="translate(300,1246)"><rect width="100" height="56" rx="14" fill="#ffffff" stroke="#0096c7" stroke-width="2"/><text x="50" y="72" font-size="11" font-weight="600" fill="#1a2b3c" text-anchor="middle">14px</text><text x="50" y="86" font-size="10" fill="#9aa5b1" text-anchor="middle">radius-lg</text></g>
<g transform="translate(430,1246)"><rect width="100" height="56" rx="20" fill="#ffffff" stroke="#0096c7" stroke-width="2"/><text x="50" y="72" font-size="11" font-weight="600" fill="#1a2b3c" text-anchor="middle">20px</text><text x="50" y="86" font-size="10" fill="#9aa5b1" text-anchor="middle">radius-xl</text></g>
<g transform="translate(560,1246)"><rect width="100" height="56" rx="25" fill="#ffffff" stroke="#0096c7" stroke-width="2"/><text x="50" y="72" font-size="11" font-weight="600" fill="#1a2b3c" text-anchor="middle">9999px</text><text x="50" y="86" font-size="10" fill="#9aa5b1" text-anchor="middle">radius-full</text></g>
<line x1="40" y1="1346" x2="1160" y2="1346" stroke="#e2e8f0"/>
<text x="40" y="1386" font-size="22" font-weight="700" fill="#1a2b3c"><tspan fill="#0096c7">4. </tspan>Botões</text>
<text x="40" y="1406" font-size="12" fill="#5c6b7a">Padding: 12px 20px · Border-radius: 10px · Font: 14px / 600</text>
<g transform="translate(40,1422)"><rect width="150" height="44" rx="10" fill="#0096c7"/><text x="75" y="28" font-size="14" font-weight="600" fill="white" text-anchor="middle">+ Primário</text></g>
<g transform="translate(204,1422)"><rect width="130" height="44" rx="10" fill="#f7f9fb" stroke="#e2e8f0"/><text x="65" y="28" font-size="14" font-weight="600" fill="#1a2b3c" text-anchor="middle">Secundário</text></g>
<g transform="translate(348,1422)"><rect width="120" height="44" rx="10" fill="#10b981"/><text x="60" y="28" font-size="14" font-weight="600" fill="white" text-anchor="middle">Sucesso</text></g>
<g transform="translate(482,1422)"><rect width="110" height="44" rx="10" fill="#ef4444"/><text x="55" y="28" font-size="14" font-weight="600" fill="white" text-anchor="middle">Perigo</text></g>
<g transform="translate(606,1422)"><rect width="100" height="44" rx="10" fill="none" stroke="#e2e8f0" stroke-dasharray="4 2"/><text x="50" y="28" font-size="14" font-weight="600" fill="#5c6b7a" text-anchor="middle">Ghost</text></g>
<line x1="40" y1="1488" x2="1160" y2="1488" stroke="#e2e8f0"/>
<text x="40" y="1528" font-size="22" font-weight="700" fill="#1a2b3c"><tspan fill="#0096c7">5. </tspan>Badges</text>
<g transform="translate(40,1546)"><rect width="82" height="28" rx="14" fill="#d1fae5"/><text x="41" y="19" font-size="12" font-weight="500" fill="#059669" text-anchor="middle">● Ótimo</text></g>
<g transform="translate(136,1546)"><rect width="86" height="28" rx="14" fill="#fef3c7"/><text x="43" y="19" font-size="12" font-weight="500" fill="#d97706" text-anchor="middle">● Regular</text></g>
<g transform="translate(236,1546)"><rect width="82" height="28" rx="14" fill="#fee2e2"/><text x="41" y="19" font-size="12" font-weight="500" fill="#dc2626" text-anchor="middle">● Crítico</text></g>
<g transform="translate(332,1546)"><rect width="72" height="28" rx="14" fill="#f7f9fb"/><text x="36" y="19" font-size="12" font-weight="500" fill="#5c6b7a" text-anchor="middle">Inativo</text></g>
<g transform="translate(418,1546)"><rect width="76" height="28" rx="14" fill="#caf0f8"/><text x="38" y="19" font-size="12" font-weight="500" fill="#0077b6" text-anchor="middle">Primary</text></g>
<g transform="translate(510,1546)"><rect width="44" height="28" rx="6" fill="#0096c7"/><text x="22" y="19" font-size="12" font-weight="700" fill="white" text-anchor="middle">Z01</text></g>
<g transform="translate(562,1546)"><rect width="44" height="28" rx="6" fill="#0096c7"/><text x="22" y="19" font-size="12" font-weight="700" fill="white" text-anchor="middle">Z02</text></g>
<g transform="translate(614,1546)"><rect width="44" height="28" rx="6" fill="#0096c7"/><text x="22" y="19" font-size="12" font-weight="700" fill="white" text-anchor="middle">Z03</text></g>
<line x1="40" y1="1596" x2="1160" y2="1596" stroke="#e2e8f0"/>
<text x="40" y="1636" font-size="22" font-weight="700" fill="#1a2b3c"><tspan fill="#0096c7">6. </tspan>Cards</text>
<text x="40" y="1656" font-size="12" fill="#5c6b7a">Border-radius: 14px · Padding: 20px · Border: 1px solid #e2e8f0</text>
<g transform="translate(40,1672)"><rect width="340" height="150" rx="14" fill="#ffffff" stroke="#e2e8f0" filter="url(#sh)"/><text x="20" y="32" font-size="16" font-weight="600" fill="#1a2b3c">Título do Card</text><text x="20" y="52" font-size="12" fill="#9aa5b1">Subtítulo opcional</text><line x1="20" y1="66" x2="320" y2="66" stroke="#e2e8f0"/><text x="20" y="90" font-size="14" fill="#5c6b7a">Conteúdo do card com</text><text x="20" y="108" font-size="14" fill="#5c6b7a">informação relevante.</text><text x="20" y="140" font-size="11" fill="#9aa5b1">Card padrão — Default State</text></g>
<g transform="translate(410,1672)"><rect width="340" height="150" rx="14" fill="#ffffff" stroke="#00b4d8"/><text x="20" y="32" font-size="16" font-weight="600" fill="#1a2b3c">Card com Hover</text><text x="20" y="52" font-size="12" fill="#9aa5b1">Estado interativo</text><line x1="20" y1="66" x2="320" y2="66" stroke="#e2e8f0"/><text x="20" y="90" font-size="14" fill="#5c6b7a">Border muda para blue-400</text><text x="20" y="108" font-size="14" fill="#5c6b7a">Shadow aumenta, translateY(-2px)</text><text x="20" y="140" font-size="11" fill="#00b4d8">:hover — border: #00b4d8, shadow-md</text></g>
<line x1="40" y1="1846" x2="1160" y2="1846" stroke="#e2e8f0"/>
<text x="40" y="1886" font-size="22" font-weight="700" fill="#1a2b3c"><tspan fill="#0096c7">7. </tspan>Stat Cards</text>
<g transform="translate(40,1904)"><rect width="260" height="100" rx="14" fill="#f7f9fb" stroke="#e2e8f0"/><rect x="18" y="22" width="52" height="52" rx="10" fill="#caf0f8"/><text x="90" y="44" font-size="30" font-weight="700" fill="#1a2b3c">5</text><text x="90" y="64" font-size="13" fill="#5c6b7a">Zonas de Rega</text>
<circle cx="96" cy="80" r="4" fill="#059669"/><text x="106" y="84" font-size="11" font-weight="500" fill="#059669">Operacionais</text>
</g>
<g transform="translate(320,1904)"><rect width="260" height="100" rx="14" fill="#f7f9fb" stroke="#e2e8f0"/><rect x="18" y="22" width="52" height="52" rx="10" fill="#d1fae5"/><text x="90" y="44" font-size="30" font-weight="700" fill="#1a2b3c">15</text><text x="90" y="64" font-size="13" fill="#5c6b7a">Eletroválvulas</text>
</g>
<g transform="translate(600,1904)"><rect width="260" height="100" rx="14" fill="#f7f9fb" stroke="#e2e8f0"/><rect x="18" y="22" width="52" height="52" rx="10" fill="#fef3c7"/><text x="90" y="44" font-size="30" font-weight="700" fill="#1a2b3c">3</text><text x="90" y="64" font-size="13" fill="#5c6b7a">Alertas Ativos</text>
</g>
<g transform="translate(880,1904)"><rect width="260" height="100" rx="14" fill="#f7f9fb" stroke="#e2e8f0"/><rect x="18" y="22" width="52" height="52" rx="10" fill="#fee2e2"/><text x="90" y="44" font-size="30" font-weight="700" fill="#1a2b3c">1</text><text x="90" y="64" font-size="13" fill="#5c6b7a">Fugas Detectadas</text>
</g>
<line x1="40" y1="2026" x2="1160" y2="2026" stroke="#e2e8f0"/>
<text x="40" y="2066" font-size="22" font-weight="700" fill="#1a2b3c"><tspan fill="#0096c7">8. </tspan>Alertas</text>
<g transform="translate(40,2084)"><rect width="1120" height="60" rx="10" fill="#fef2f2" stroke="#fee2e2"/><rect width="4" height="60" rx="2" fill="#ef4444"/><rect x="16" y="12" width="36" height="36" rx="6" fill="#ef4444"/><text x="66" y="28" font-size="14" font-weight="600" fill="#dc2626">Fuga detectada na Zona Oeste</text><text x="66" y="46" font-size="12" fill="#5c6b7a">Desvio de consumo de 23% detectado.</text></g>
<g transform="translate(40,2156)"><rect width="1120" height="60" rx="10" fill="#ecfdf5" stroke="#d1fae5"/><rect width="4" height="60" rx="2" fill="#10b981"/><rect x="16" y="12" width="36" height="36" rx="6" fill="#10b981"/><text x="66" y="28" font-size="14" font-weight="600" fill="#059669">Ciclo concluído</text><text x="66" y="46" font-size="12" fill="#5c6b7a">Zona Norte regada com sucesso.</text></g>
<g transform="translate(40,2228)"><rect width="1120" height="60" rx="10" fill="#fffbeb" stroke="#fef3c7"/><rect width="4" height="60" rx="2" fill="#f59e0b"/><rect x="16" y="12" width="36" height="36" rx="6" fill="#f59e0b"/><text x="66" y="28" font-size="14" font-weight="600" fill="#d97706">Pressão baixa na Zona Sul</text><text x="66" y="46" font-size="12" fill="#5c6b7a">Verificar bomba principal e válvulas.</text></g>
<line x1="40" y1="2304" x2="1160" y2="2304" stroke="#e2e8f0"/>
<text x="40" y="2344" font-size="22" font-weight="700" fill="#1a2b3c"><tspan fill="#0096c7">9. </tspan>Formulários</text>
<g transform="translate(40,2362)"><text x="0" y="-6" font-size="11" font-weight="600" fill="#5c6b7a">Default</text><rect width="280" height="42" rx="10" fill="#ffffff" stroke="#e2e8f0"/><text x="16" y="26" font-size="13" fill="#9aa5b1">Placeholder text...</text></g>
<g transform="translate(350,2362)"><text x="0" y="-6" font-size="11" font-weight="600" fill="#5c6b7a">Focus</text><rect width="286" height="48" rx="13" x="-3" y="-3" fill="none" stroke="#caf0f8" stroke-width="3"/><rect width="280" height="42" rx="10" fill="#ffffff" stroke="#00b4d8" stroke-width="1.5"/><text x="16" y="26" font-size="13" fill="#1a2b3c">Input com texto</text></g>
<g transform="translate(670,2362)"><text x="0" y="-6" font-size="11" font-weight="600" fill="#5c6b7a">Preenchido</text><rect width="280" height="42" rx="10" fill="#ffffff" stroke="#e2e8f0"/><text x="16" y="26" font-size="13" fill="#1a2b3c">Valor preenchido</text></g>
<text x="40" y="2426" font-size="10" font-weight="600" fill="#9aa5b1" letter-spacing="0.5">TOGGLE SWITCHES</text>
<g transform="translate(40,2442)"><rect width="44" height="24" rx="12" fill="#9aa5b1"/><circle cx="15" cy="12" r="9" fill="white"/><text x="54" y="17" font-size="12" fill="#5c6b7a">Desligado</text></g>
<g transform="translate(200,2442)"><rect width="44" height="24" rx="12" fill="#10b981"/><circle cx="29" cy="12" r="9" fill="white"/><text x="54" y="17" font-size="12" fill="#059669">Ligado</text></g>
<line x1="40" y1="2486" x2="1160" y2="2486" stroke="#e2e8f0"/>
<text x="40" y="2526" font-size="22" font-weight="700" fill="#1a2b3c"><tspan fill="#0096c7">10. </tspan>Tabela</text>
<g transform="translate(40,2544)">
<rect width="1120" height="220" rx="14" fill="#ffffff" stroke="#e2e8f0" filter="url(#sh)"/>
<rect width="1120" height="40" rx="14" fill="#f7f9fb"/><rect y="26" width="1120" height="14" fill="#f7f9fb"/>
<text x="20" y="26" font-size="14" font-weight="600" fill="#1a2b3c">Histórico de Regas</text>
<rect y="40" width="1120" height="32" fill="#f7f9fb"/><line x1="0" y1="40" x2="1120" y2="40" stroke="#e2e8f0"/>
<text x="20" y="62" font-size="10" font-weight="600" fill="#9aa5b1" letter-spacing="0.5">ZONA</text>
<text x="140" y="62" font-size="10" font-weight="600" fill="#9aa5b1" letter-spacing="0.5">DATA</text>
<text x="380" y="62" font-size="10" font-weight="600" fill="#9aa5b1" letter-spacing="0.5">DURAÇÃO</text>
<text x="540" y="62" font-size="10" font-weight="600" fill="#9aa5b1" letter-spacing="0.5">CONSUMO</text>
<text x="720" y="62" font-size="10" font-weight="600" fill="#9aa5b1" letter-spacing="0.5">ESTADO</text>
<line x1="0" y1="72" x2="1120" y2="72" stroke="#e2e8f0"/>
<rect x="20" y="82" width="44" height="22" rx="6" fill="#0096c7"/><text x="42" y="98" font-size="12" font-weight="700" fill="white" text-anchor="middle">Z01</text><text x="140" y="98" font-size="13" fill="#1a2b3c">2025-01-15 06:00</text><text x="380" y="98" font-size="13" fill="#1a2b3c">45 min</text><text x="540" y="98" font-size="13" fill="#1a2b3c">2.340 L</text><rect x="720" y="84" width="70" height="22" rx="11" fill="#d1fae5"/><text x="755" y="100" font-size="11" font-weight="500" fill="#059669" text-anchor="middle">Ótimo</text>
<line x1="0" y1="112" x2="1120" y2="112" stroke="#e2e8f0"/>
<rect x="20" y="122" width="44" height="22" rx="6" fill="#0096c7"/><text x="42" y="138" font-size="12" font-weight="700" fill="white" text-anchor="middle">Z02</text><text x="140" y="138" font-size="13" fill="#1a2b3c">2025-01-15 07:30</text><text x="380" y="138" font-size="13" fill="#1a2b3c">30 min</text><text x="540" y="138" font-size="13" fill="#1a2b3c">1.850 L</text><rect x="720" y="124" width="70" height="22" rx="11" fill="#fef3c7"/><text x="755" y="140" font-size="11" font-weight="500" fill="#d97706" text-anchor="middle">Regular</text>
<line x1="0" y1="152" x2="1120" y2="152" stroke="#e2e8f0"/>
<rect x="20" y="162" width="44" height="22" rx="6" fill="#0096c7"/><text x="42" y="178" font-size="12" font-weight="700" fill="white" text-anchor="middle">Z03</text><text x="140" y="178" font-size="13" fill="#1a2b3c">2025-01-14 18:00</text><text x="380" y="178" font-size="13" fill="#1a2b3c">60 min</text><text x="540" y="178" font-size="13" fill="#1a2b3c">3.120 L</text><rect x="720" y="164" width="70" height="22" rx="11" fill="#fee2e2"/><text x="755" y="180" font-size="11" font-weight="500" fill="#dc2626" text-anchor="middle">Crítico</text>
</g>
<line x1="40" y1="2784" x2="1160" y2="2784" stroke="#e2e8f0"/>
<text x="40" y="2824" font-size="22" font-weight="700" fill="#1a2b3c"><tspan fill="#0096c7">11. </tspan>Sidebar &amp; Navegação</text>
<g transform="translate(40,2842)">
<rect width="260" height="440" fill="#ffffff" stroke="#e2e8f0" filter="url(#sh)"/>
<rect x="20" y="16" width="40" height="40" rx="10" fill="#0096c7"/><text x="40" y="42" font-size="16" font-weight="700" fill="white" text-anchor="middle">B</text>
<text x="72" y="32" font-size="16" font-weight="700" fill="#0077b6">B2S Aqua</text><text x="72" y="48" font-size="10" fill="#9aa5b1">Gestão de Rega</text>
<line x1="0" y1="68" x2="260" y2="68" stroke="#e2e8f0"/>
<text x="20" y="92" font-size="10" font-weight="600" fill="#9aa5b1" letter-spacing="0.5">NAVEGAÇÃO</text>
<rect x="10" y="100" width="240" height="36" rx="8" fill="#e8f7fa"/><text x="28" y="124" font-size="13" font-weight="500" fill="#0077b6">Dashboard</text>
<text x="28" y="158" font-size="13" fill="#5c6b7a">Zonas</text>
<text x="28" y="184" font-size="13" fill="#5c6b7a">Válvulas</text>
<text x="28" y="210" font-size="13" fill="#5c6b7a">Programações</text>
<text x="28" y="236" font-size="13" fill="#5c6b7a">Histórico</text>
<line x1="20" y1="256" x2="240" y2="256" stroke="#e2e8f0"/>
<text x="20" y="280" font-size="10" font-weight="600" fill="#9aa5b1" letter-spacing="0.5">CONFIGURAÇÕES</text>
<text x="28" y="304" font-size="13" fill="#5c6b7a">Alertas</text>
<text x="28" y="330" font-size="13" fill="#5c6b7a">Definições</text>
<rect x="270" y="0" width="500" height="56" fill="#ffffff" stroke="#e2e8f0"/><text x="296" y="36" font-size="20" font-weight="700" fill="#1a2b3c">Dashboard</text>
<rect x="270" y="56" width="500" height="384" fill="#f7f9fb" stroke="#e2e8f0"/>
</g>
<line x1="40" y1="3304" x2="1160" y2="3304" stroke="#e2e8f0"/>
<text x="40" y="3344" font-size="22" font-weight="700" fill="#1a2b3c"><tspan fill="#0096c7">12. </tspan>Ícones de Sistema</text>
<text x="40" y="3364" font-size="12" fill="#5c6b7a">Lucide · SVG Stroke · 24×24 · stroke-width: 2</text>
<g transform="translate(40,3380)"><rect width="80" height="80" rx="10" fill="#f7f9fb"/><g transform="translate(28,18)"><svg width="24" height="24" viewBox="0 0 24 24" fill="none" stroke="#5c6b7a" stroke-width="2" stroke-linecap="round" stroke-linejoin="round"><rect x="3" y="3" width="7" height="7" rx="1"/><rect x="14" y="3" width="7" height="7" rx="1"/><rect x="3" y="14" width="7" height="7" rx="1"/><rect x="14" y="14" width="7" height="7" rx="1"/></svg></g><text x="40" y="100" font-size="11" fill="#9aa5b1" text-anchor="middle">Dashboard</text></g>
<g transform="translate(170,3380)"><rect width="80" height="80" rx="10" fill="#f7f9fb"/><g transform="translate(28,18)"><svg width="24" height="24" viewBox="0 0 24 24" fill="none" stroke="#5c6b7a" stroke-width="2" stroke-linecap="round" stroke-linejoin="round"><path d="M20 10c0 6-8 12-8 12s-8-6-8-12a8 8 0 0 1 16 0Z"/><circle cx="12" cy="10" r="3"/></svg></g><text x="40" y="100" font-size="11" fill="#9aa5b1" text-anchor="middle">Zona</text></g>
<g transform="translate(300,3380)"><rect width="80" height="80" rx="10" fill="#f7f9fb"/><g transform="translate(28,18)"><svg width="24" height="24" viewBox="0 0 24 24" fill="none" stroke="#5c6b7a" stroke-width="2" stroke-linecap="round" stroke-linejoin="round"><circle cx="12" cy="12" r="4"/><line x1="12" y1="4" x2="12" y2="6"/><line x1="12" y1="18" x2="12" y2="20"/><line x1="4" y1="12" x2="6" y2="12"/><line x1="18" y1="12" x2="20" y2="12"/></svg></g><text x="40" y="100" font-size="11" fill="#9aa5b1" text-anchor="middle">Válvula</text></g>
<g transform="translate(430,3380)"><rect width="80" height="80" rx="10" fill="#f7f9fb"/><g transform="translate(28,18)"><svg width="24" height="24" viewBox="0 0 24 24" fill="none" stroke="#5c6b7a" stroke-width="2" stroke-linecap="round" stroke-linejoin="round"><path d="M12 2.69l5.66 5.66a8 8 0 1 1-11.31 0z"/></svg></g><text x="40" y="100" font-size="11" fill="#9aa5b1" text-anchor="middle">Água</text></g>
<g transform="translate(560,3380)"><rect width="80" height="80" rx="10" fill="#f7f9fb"/><g transform="translate(28,18)"><svg width="24" height="24" viewBox="0 0 24 24" fill="none" stroke="#5c6b7a" stroke-width="2" stroke-linecap="round" stroke-linejoin="round"><path d="M3 3v18h18"/><path d="m7 16 4-4 4 4 5-6"/></svg></g><text x="40" y="100" font-size="11" fill="#9aa5b1" text-anchor="middle">Analytics</text></g>
<g transform="translate(690,3380)"><rect width="80" height="80" rx="10" fill="#f7f9fb"/><g transform="translate(28,18)"><svg width="24" height="24" viewBox="0 0 24 24" fill="none" stroke="#10b981" stroke-width="2" stroke-linecap="round" stroke-linejoin="round"><circle cx="12" cy="12" r="9"/><path d="m9 12 2 2 4-4"/></svg></g><text x="40" y="100" font-size="11" fill="#9aa5b1" text-anchor="middle">Sucesso</text></g>
<g transform="translate(820,3380)"><rect width="80" height="80" rx="10" fill="#f7f9fb"/><g transform="translate(28,18)"><svg width="24" height="24" viewBox="0 0 24 24" fill="none" stroke="#f59e0b" stroke-width="2" stroke-linecap="round" stroke-linejoin="round"><circle cx="12" cy="12" r="9"/><line x1="12" y1="8" x2="12" y2="12"/><circle cx="12" cy="16" r="0.5"/></svg></g><text x="40" y="100" font-size="11" fill="#9aa5b1" text-anchor="middle">Aviso</text></g>
<g transform="translate(950,3380)"><rect width="80" height="80" rx="10" fill="#f7f9fb"/><g transform="translate(28,18)"><svg width="24" height="24" viewBox="0 0 24 24" fill="none" stroke="#ef4444" stroke-width="2" stroke-linecap="round" stroke-linejoin="round"><circle cx="12" cy="12" r="9"/><line x1="9" y1="9" x2="15" y2="15"/><line x1="15" y1="9" x2="9" y2="15"/></svg></g><text x="40" y="100" font-size="11" fill="#9aa5b1" text-anchor="middle">Erro</text></g>
<line x1="40" y1="3500" x2="1160" y2="3500" stroke="#e2e8f0"/>
<text x="40" y="3540" font-size="22" font-weight="700" fill="#1a2b3c"><tspan fill="#0096c7">13. </tspan>Ícones de Produto</text>
<text x="40" y="3560" font-size="12" fill="#5c6b7a">Lucide Icons · 200×200 · White on #f93f26 · Radius 40px · Scale ×6.25</text>
<text x="40" y="3576" font-size="10" font-weight="600" fill="#9aa5b1" letter-spacing="0.5">LIGHT MODE</text>
<g transform="translate(40,3590)"><svg x="0" y="0" width="140" height="140" viewBox="0 0 200 200"><rect width="200" height="200" rx="40" fill="#f93f26"/><g transform="translate(25,25) scale(6.25)" stroke="white" stroke-width="2" stroke-linecap="round" stroke-linejoin="round" fill="none"><path d="M7 19H4.815a1.83 1.83 0 0 1-1.57-.881 1.785 1.785 0 0 1-.004-1.784L7.196 9.5"/><path d="M11 19h8.203a1.83 1.83 0 0 0 1.556-.89 1.784 1.784 0 0 0 0-1.775l-1.226-2.12"/><path d="m14 16-3 3 3 3"/><path d="M8.293 13.596 7.196 9.5 3.1 10.598"/><path d="m9.344 5.811 1.093-1.892A1.83 1.83 0 0 1 11.985 3a1.784 1.784 0 0 1 1.546.888l3.943 6.843"/><path d="m13.378 9.633 4.096 1.098 1.097-4.096"/></g></svg><text x="70" y="158" font-size="13" font-weight="700" fill="#1a2b3c" text-anchor="middle">Bee2Waste</text><text x="70" y="174" font-size="10" fill="#9aa5b1" text-anchor="middle">Recycle</text><text x="70" y="188" font-size="9" fill="#5c6b7a" text-anchor="middle">Gestão de Recolha de Resíduos</text></g>
<g transform="translate(220,3590)"><svg x="0" y="0" width="140" height="140" viewBox="0 0 200 200"><rect width="200" height="200" rx="40" fill="#f93f26"/><g transform="translate(25,25) scale(6.25)" stroke="white" stroke-width="2" stroke-linecap="round" stroke-linejoin="round" fill="none"><path d="M7 16.3c2.2 0 4-1.83 4-4.05 0-1.16-.57-2.26-1.71-3.19S7.29 6.75 7 5.3c-.29 1.45-1.14 2.84-2.29 3.76S3 11.1 3 12.25c0 2.22 1.8 4.05 4 4.05z"/><path d="M12.56 6.6A10.97 10.97 0 0 0 14 3.02c.5 2.5 2 4.9 4 6.5s3 3.5 3 5.5a6.98 6.98 0 0 1-11.91 4.97"/></g></svg><text x="70" y="158" font-size="13" font-weight="700" fill="#1a2b3c" text-anchor="middle">Bee2Water</text><text x="70" y="174" font-size="10" fill="#9aa5b1" text-anchor="middle">Droplets</text><text x="70" y="188" font-size="9" fill="#5c6b7a" text-anchor="middle">Gestão de Consumo de Água</text></g>
<g transform="translate(400,3590)"><svg x="0" y="0" width="140" height="140" viewBox="0 0 200 200"><rect width="200" height="200" rx="40" fill="#f93f26"/><g transform="translate(25,25) scale(6.25)" stroke="white" stroke-width="2" stroke-linecap="round" stroke-linejoin="round" fill="none"><path d="M14 9.536V7a4 4 0 0 1 4-4h1.5a.5.5 0 0 1 .5.5V5a4 4 0 0 1-4 4 4 4 0 0 0-4 4c0 2 1 3 1 5a5 5 0 0 1-1 3"/><path d="M4 9a5 5 0 0 1 8 4 5 5 0 0 1-8-4"/><path d="M5 21h14"/></g></svg><text x="70" y="158" font-size="13" font-weight="700" fill="#1a2b3c" text-anchor="middle">Bee2Crop</text><text x="70" y="174" font-size="10" fill="#9aa5b1" text-anchor="middle">Sprout</text><text x="70" y="188" font-size="9" fill="#5c6b7a" text-anchor="middle">Rega e Fertilização Inteligente</text></g>
<g transform="translate(580,3590)"><svg x="0" y="0" width="140" height="140" viewBox="0 0 200 200"><rect width="200" height="200" rx="40" fill="#f93f26"/><g transform="translate(25,25) scale(6.25)" stroke="white" stroke-width="2" stroke-linecap="round" stroke-linejoin="round" fill="none"><path d="M2 22c1.25-.987 2.27-1.975 3.9-2.2a5.56 5.56 0 0 1 3.8 1.5 4 4 0 0 0 6.187-2.353 3.5 3.5 0 0 0 3.69-5.116A3.5 3.5 0 0 0 20.95 8 3.5 3.5 0 1 0 16 3.05a3.5 3.5 0 0 0-5.831 1.373 3.5 3.5 0 0 0-5.116 3.69 4 4 0 0 0-2.348 6.155C3.499 15.42 4.409 16.712 4.2 18.1 3.926 19.743 3.014 20.732 2 22"/><path d="M2 22 17 7"/></g></svg><text x="70" y="158" font-size="13" font-weight="700" fill="#1a2b3c" text-anchor="middle">Bee2Green</text><text x="70" y="174" font-size="10" fill="#9aa5b1" text-anchor="middle">LeafyGreen</text><text x="70" y="188" font-size="9" fill="#5c6b7a" text-anchor="middle">Gestão de Água e Espaços Verdes</text></g>
<g transform="translate(760,3590)"><svg x="0" y="0" width="140" height="140" viewBox="0 0 200 200"><rect width="200" height="200" rx="40" fill="#f93f26"/><g transform="translate(25,25) scale(6.25)" stroke="white" stroke-width="2" stroke-linecap="round" stroke-linejoin="round" fill="none"><path d="M15 14c.2-1 .7-1.7 1.5-2.5 1-.9 1.5-2.2 1.5-3.5A6 6 0 0 0 6 8c0 1 .2 2.2 1.5 3.5.7.7 1.3 1.5 1.5 2.5"/><path d="M9 18h6"/><path d="M10 22h4"/></g></svg><text x="70" y="158" font-size="13" font-weight="700" fill="#1a2b3c" text-anchor="middle">Bee2Lighting</text><text x="70" y="174" font-size="10" fill="#9aa5b1" text-anchor="middle">Lightbulb</text><text x="70" y="188" font-size="9" fill="#5c6b7a" text-anchor="middle">Gestão de Iluminação Pública</text></g>
<g transform="translate(940,3590)"><svg x="0" y="0" width="140" height="140" viewBox="0 0 200 200"><rect width="200" height="200" rx="40" fill="#f93f26"/><g transform="translate(25,25) scale(6.25)" stroke="white" stroke-width="2" stroke-linecap="round" stroke-linejoin="round" fill="none"><path d="M4 14a1 1 0 0 1-.78-1.63l9.9-10.2a.5.5 0 0 1 .86.46l-1.92 6.02A1 1 0 0 0 13 10h7a1 1 0 0 1 .78 1.63l-9.9 10.2a.5.5 0 0 1-.86-.46l1.92-6.02A1 1 0 0 0 11 14z"/></g></svg><text x="70" y="158" font-size="13" font-weight="700" fill="#1a2b3c" text-anchor="middle">Bee2Energy</text><text x="70" y="174" font-size="10" fill="#9aa5b1" text-anchor="middle">Zap</text><text x="70" y="188" font-size="9" fill="#5c6b7a" text-anchor="middle">Gestão de Eficiência Energética</text></g>
<text x="40" y="3794" font-size="10" font-weight="600" fill="#9aa5b1" letter-spacing="0.5">DARK MODE</text>
<rect x="40" y="3808" width="1120" height="200" rx="12" fill="#1a2028"/>
<g transform="translate(56,3824)"><svg x="0" y="0" width="120" height="120" viewBox="0 0 200 200"><rect width="200" height="200" rx="40" fill="#f93f26"/><g transform="translate(25,25) scale(6.25)" stroke="white" stroke-width="2" stroke-linecap="round" stroke-linejoin="round" fill="none"><path d="M7 19H4.815a1.83 1.83 0 0 1-1.57-.881 1.785 1.785 0 0 1-.004-1.784L7.196 9.5"/><path d="M11 19h8.203a1.83 1.83 0 0 0 1.556-.89 1.784 1.784 0 0 0 0-1.775l-1.226-2.12"/><path d="m14 16-3 3 3 3"/><path d="M8.293 13.596 7.196 9.5 3.1 10.598"/><path d="m9.344 5.811 1.093-1.892A1.83 1.83 0 0 1 11.985 3a1.784 1.784 0 0 1 1.546.888l3.943 6.843"/><path d="m13.378 9.633 4.096 1.098 1.097-4.096"/></g></svg><text x="60" y="138" font-size="12" font-weight="600" fill="#e8edf2" text-anchor="middle">Bee2Waste</text><text x="60" y="154" font-size="9" fill="#5c6b7a" text-anchor="middle">Recycle</text></g>
<g transform="translate(236,3824)"><svg x="0" y="0" width="120" height="120" viewBox="0 0 200 200"><rect width="200" height="200" rx="40" fill="#f93f26"/><g transform="translate(25,25) scale(6.25)" stroke="white" stroke-width="2" stroke-linecap="round" stroke-linejoin="round" fill="none"><path d="M7 16.3c2.2 0 4-1.83 4-4.05 0-1.16-.57-2.26-1.71-3.19S7.29 6.75 7 5.3c-.29 1.45-1.14 2.84-2.29 3.76S3 11.1 3 12.25c0 2.22 1.8 4.05 4 4.05z"/><path d="M12.56 6.6A10.97 10.97 0 0 0 14 3.02c.5 2.5 2 4.9 4 6.5s3 3.5 3 5.5a6.98 6.98 0 0 1-11.91 4.97"/></g></svg><text x="60" y="138" font-size="12" font-weight="600" fill="#e8edf2" text-anchor="middle">Bee2Water</text><text x="60" y="154" font-size="9" fill="#5c6b7a" text-anchor="middle">Droplets</text></g>
<g transform="translate(416,3824)"><svg x="0" y="0" width="120" height="120" viewBox="0 0 200 200"><rect width="200" height="200" rx="40" fill="#f93f26"/><g transform="translate(25,25) scale(6.25)" stroke="white" stroke-width="2" stroke-linecap="round" stroke-linejoin="round" fill="none"><path d="M14 9.536V7a4 4 0 0 1 4-4h1.5a.5.5 0 0 1 .5.5V5a4 4 0 0 1-4 4 4 4 0 0 0-4 4c0 2 1 3 1 5a5 5 0 0 1-1 3"/><path d="M4 9a5 5 0 0 1 8 4 5 5 0 0 1-8-4"/><path d="M5 21h14"/></g></svg><text x="60" y="138" font-size="12" font-weight="600" fill="#e8edf2" text-anchor="middle">Bee2Crop</text><text x="60" y="154" font-size="9" fill="#5c6b7a" text-anchor="middle">Sprout</text></g>
<g transform="translate(596,3824)"><svg x="0" y="0" width="120" height="120" viewBox="0 0 200 200"><rect width="200" height="200" rx="40" fill="#f93f26"/><g transform="translate(25,25) scale(6.25)" stroke="white" stroke-width="2" stroke-linecap="round" stroke-linejoin="round" fill="none"><path d="M2 22c1.25-.987 2.27-1.975 3.9-2.2a5.56 5.56 0 0 1 3.8 1.5 4 4 0 0 0 6.187-2.353 3.5 3.5 0 0 0 3.69-5.116A3.5 3.5 0 0 0 20.95 8 3.5 3.5 0 1 0 16 3.05a3.5 3.5 0 0 0-5.831 1.373 3.5 3.5 0 0 0-5.116 3.69 4 4 0 0 0-2.348 6.155C3.499 15.42 4.409 16.712 4.2 18.1 3.926 19.743 3.014 20.732 2 22"/><path d="M2 22 17 7"/></g></svg><text x="60" y="138" font-size="12" font-weight="600" fill="#e8edf2" text-anchor="middle">Bee2Green</text><text x="60" y="154" font-size="9" fill="#5c6b7a" text-anchor="middle">LeafyGreen</text></g>
<g transform="translate(776,3824)"><svg x="0" y="0" width="120" height="120" viewBox="0 0 200 200"><rect width="200" height="200" rx="40" fill="#f93f26"/><g transform="translate(25,25) scale(6.25)" stroke="white" stroke-width="2" stroke-linecap="round" stroke-linejoin="round" fill="none"><path d="M15 14c.2-1 .7-1.7 1.5-2.5 1-.9 1.5-2.2 1.5-3.5A6 6 0 0 0 6 8c0 1 .2 2.2 1.5 3.5.7.7 1.3 1.5 1.5 2.5"/><path d="M9 18h6"/><path d="M10 22h4"/></g></svg><text x="60" y="138" font-size="12" font-weight="600" fill="#e8edf2" text-anchor="middle">Bee2Lighting</text><text x="60" y="154" font-size="9" fill="#5c6b7a" text-anchor="middle">Lightbulb</text></g>
<g transform="translate(956,3824)"><svg x="0" y="0" width="120" height="120" viewBox="0 0 200 200"><rect width="200" height="200" rx="40" fill="#f93f26"/><g transform="translate(25,25) scale(6.25)" stroke="white" stroke-width="2" stroke-linecap="round" stroke-linejoin="round" fill="none"><path d="M4 14a1 1 0 0 1-.78-1.63l9.9-10.2a.5.5 0 0 1 .86.46l-1.92 6.02A1 1 0 0 0 13 10h7a1 1 0 0 1 .78 1.63l-9.9 10.2a.5.5 0 0 1-.86-.46l1.92-6.02A1 1 0 0 0 11 14z"/></g></svg><text x="60" y="138" font-size="12" font-weight="600" fill="#e8edf2" text-anchor="middle">Bee2Energy</text><text x="60" y="154" font-size="9" fill="#5c6b7a" text-anchor="middle">Zap</text></g>
<text x="40" y="4024" font-size="10" font-weight="600" fill="#9aa5b1" letter-spacing="0.5">TAMANHOS</text>
<g transform="translate(40,4038)"><svg x="0" y="0" width="120" height="120" viewBox="0 0 200 200"><rect width="200" height="200" rx="40" fill="#f93f26"/><g transform="translate(25,25) scale(6.25)" stroke="white" stroke-width="2" stroke-linecap="round" stroke-linejoin="round" fill="none"><path d="M7 19H4.815a1.83 1.83 0 0 1-1.57-.881 1.785 1.785 0 0 1-.004-1.784L7.196 9.5"/><path d="M11 19h8.203a1.83 1.83 0 0 0 1.556-.89 1.784 1.784 0 0 0 0-1.775l-1.226-2.12"/><path d="m14 16-3 3 3 3"/><path d="M8.293 13.596 7.196 9.5 3.1 10.598"/><path d="m9.344 5.811 1.093-1.892A1.83 1.83 0 0 1 11.985 3a1.784 1.784 0 0 1 1.546.888l3.943 6.843"/><path d="m13.378 9.633 4.096 1.098 1.097-4.096"/></g></svg><text x="60" y="134" font-size="10" fill="#9aa5b1" text-anchor="middle">120px</text></g>
<g transform="translate(184,4038)"><svg x="0" y="0" width="80" height="80" viewBox="0 0 200 200"><rect width="200" height="200" rx="40" fill="#f93f26"/><g transform="translate(25,25) scale(6.25)" stroke="white" stroke-width="2" stroke-linecap="round" stroke-linejoin="round" fill="none"><path d="M7 19H4.815a1.83 1.83 0 0 1-1.57-.881 1.785 1.785 0 0 1-.004-1.784L7.196 9.5"/><path d="M11 19h8.203a1.83 1.83 0 0 0 1.556-.89 1.784 1.784 0 0 0 0-1.775l-1.226-2.12"/><path d="m14 16-3 3 3 3"/><path d="M8.293 13.596 7.196 9.5 3.1 10.598"/><path d="m9.344 5.811 1.093-1.892A1.83 1.83 0 0 1 11.985 3a1.784 1.784 0 0 1 1.546.888l3.943 6.843"/><path d="m13.378 9.633 4.096 1.098 1.097-4.096"/></g></svg><text x="40" y="94" font-size="10" fill="#9aa5b1" text-anchor="middle">80px</text></g>
<g transform="translate(288,4038)"><svg x="0" y="0" width="56" height="56" viewBox="0 0 200 200"><rect width="200" height="200" rx="40" fill="#f93f26"/><g transform="translate(25,25) scale(6.25)" stroke="white" stroke-width="2" stroke-linecap="round" stroke-linejoin="round" fill="none"><path d="M7 19H4.815a1.83 1.83 0 0 1-1.57-.881 1.785 1.785 0 0 1-.004-1.784L7.196 9.5"/><path d="M11 19h8.203a1.83 1.83 0 0 0 1.556-.89 1.784 1.784 0 0 0 0-1.775l-1.226-2.12"/><path d="m14 16-3 3 3 3"/><path d="M8.293 13.596 7.196 9.5 3.1 10.598"/><path d="m9.344 5.811 1.093-1.892A1.83 1.83 0 0 1 11.985 3a1.784 1.784 0 0 1 1.546.888l3.943 6.843"/><path d="m13.378 9.633 4.096 1.098 1.097-4.096"/></g></svg><text x="28" y="70" font-size="10" fill="#9aa5b1" text-anchor="middle">56px</text></g>
<g transform="translate(368,4038)"><svg x="0" y="0" width="44" height="44" viewBox="0 0 200 200"><rect width="200" height="200" rx="40" fill="#f93f26"/><g transform="translate(25,25) scale(6.25)" stroke="white" stroke-width="2" stroke-linecap="round" stroke-linejoin="round" fill="none"><path d="M7 19H4.815a1.83 1.83 0 0 1-1.57-.881 1.785 1.785 0 0 1-.004-1.784L7.196 9.5"/><path d="M11 19h8.203a1.83 1.83 0 0 0 1.556-.89 1.784 1.784 0 0 0 0-1.775l-1.226-2.12"/><path d="m14 16-3 3 3 3"/><path d="M8.293 13.596 7.196 9.5 3.1 10.598"/><path d="m9.344 5.811 1.093-1.892A1.83 1.83 0 0 1 11.985 3a1.784 1.784 0 0 1 1.546.888l3.943 6.843"/><path d="m13.378 9.633 4.096 1.098 1.097-4.096"/></g></svg><text x="22" y="58" font-size="10" fill="#9aa5b1" text-anchor="middle">44px</text></g>
<g transform="translate(436,4038)"><svg x="0" y="0" width="32" height="32" viewBox="0 0 200 200"><rect width="200" height="200" rx="40" fill="#f93f26"/><g transform="translate(25,25) scale(6.25)" stroke="white" stroke-width="2" stroke-linecap="round" stroke-linejoin="round" fill="none"><path d="M7 19H4.815a1.83 1.83 0 0 1-1.57-.881 1.785 1.785 0 0 1-.004-1.784L7.196 9.5"/><path d="M11 19h8.203a1.83 1.83 0 0 0 1.556-.89 1.784 1.784 0 0 0 0-1.775l-1.226-2.12"/><path d="m14 16-3 3 3 3"/><path d="M8.293 13.596 7.196 9.5 3.1 10.598"/><path d="m9.344 5.811 1.093-1.892A1.83 1.83 0 0 1 11.985 3a1.784 1.784 0 0 1 1.546.888l3.943 6.843"/><path d="m13.378 9.633 4.096 1.098 1.097-4.096"/></g></svg><text x="16" y="46" font-size="10" fill="#9aa5b1" text-anchor="middle">32px</text></g>
<line x1="40" y1="4198" x2="1160" y2="4198" stroke="#e2e8f0"/>
<text x="600" y="4226" font-size="13" font-weight="600" fill="#9aa5b1" text-anchor="middle">B2S Design System v1.2 · Bee2Solutions © 2025 · Lucide Icons v0.563</text>
<text x="600" y="4246" font-size="11" fill="#9aa5b1" text-anchor="middle">Importar no Figma: File → Place Image ou arrastar SVG para o canvas</text>
</svg>